<mxfile host="65bd71144e">
    <diagram name="Page-1" id="hHpF1baUSTz2clY-Ota8">
        <mxGraphModel dx="1329" dy="841" grid="0" gridSize="1" guides="1" tooltips="1" connect="1" arrows="1" fold="1" page="1" pageScale="1" pageWidth="1100" pageHeight="850" background="#EBEBEB" math="0" shadow="0">
            <root>
                <mxCell id="0"/>
                <mxCell id="1" parent="0"/>
                <mxCell id="AFJ6fUOBSR2v7E0Lf3oa-17" style="edgeStyle=orthogonalEdgeStyle;rounded=1;orthogonalLoop=1;jettySize=auto;html=1;fontSize=13;fontColor=#000000;strokeColor=#000000;exitX=0;exitY=0;exitDx=0;exitDy=0;" parent="1" source="AFJ6fUOBSR2v7E0Lf3oa-3" target="AFJ6fUOBSR2v7E0Lf3oa-7" edge="1">
                    <mxGeometry relative="1" as="geometry">
                        <mxPoint x="370" y="30" as="sourcePoint"/>
                    </mxGeometry>
                </mxCell>
                <mxCell id="AFJ6fUOBSR2v7E0Lf3oa-20" style="edgeStyle=orthogonalEdgeStyle;rounded=1;orthogonalLoop=1;jettySize=auto;html=1;exitX=0.08;exitY=0.983;exitDx=0;exitDy=0;fontSize=13;fontColor=#000000;startArrow=classic;startFill=1;strokeColor=#000000;endArrow=oval;endFill=1;exitPerimeter=0;" parent="1" source="AFJ6fUOBSR2v7E0Lf3oa-3" edge="1">
                    <mxGeometry relative="1" as="geometry">
                        <mxPoint x="462.5" y="96" as="sourcePoint"/>
                        <mxPoint x="384" y="199" as="targetPoint"/>
                    </mxGeometry>
                </mxCell>
                <mxCell id="AFJ6fUOBSR2v7E0Lf3oa-22" style="edgeStyle=orthogonalEdgeStyle;rounded=1;orthogonalLoop=1;jettySize=auto;html=1;exitX=0.5;exitY=0;exitDx=0;exitDy=0;fontSize=13;fontColor=#000000;startArrow=classic;startFill=1;strokeColor=#000000;endArrow=oval;endFill=1;entryX=0.5;entryY=0;entryDx=0;entryDy=0;" parent="1" source="AFJ6fUOBSR2v7E0Lf3oa-9" target="AFJ6fUOBSR2v7E0Lf3oa-10" edge="1">
                    <mxGeometry relative="1" as="geometry">
                        <Array as="points">
                            <mxPoint x="1007" y="166"/>
                            <mxPoint x="896" y="166"/>
                        </Array>
                    </mxGeometry>
                </mxCell>
                <mxCell id="AFJ6fUOBSR2v7E0Lf3oa-3" value="&lt;p class=&quot;MsoNormal&quot; style=&quot;font-size: 17px;&quot;&gt;Shirts Cart Program Structure&lt;/p&gt;" style="rounded=1;whiteSpace=wrap;html=1;fillStyle=auto;strokeColor=#000000;fontColor=#000000;fillColor=#ffffff;fontSize=17;fontStyle=1" parent="1" vertex="1">
                    <mxGeometry x="375" y="30" width="350" height="60" as="geometry"/>
                </mxCell>
                <mxCell id="AFJ6fUOBSR2v7E0Lf3oa-34" style="rounded=0;orthogonalLoop=1;jettySize=auto;html=1;exitX=0.5;exitY=1;exitDx=0;exitDy=0;entryX=0.5;entryY=0;entryDx=0;entryDy=0;fontSize=17;fontColor=#000000;edgeStyle=orthogonalEdgeStyle;startArrow=none;startFill=0;endArrow=none;endFill=0;strokeColor=#000000;" parent="1" source="AFJ6fUOBSR2v7E0Lf3oa-7" target="AFJ6fUOBSR2v7E0Lf3oa-26" edge="1">
                    <mxGeometry relative="1" as="geometry"/>
                </mxCell>
                <mxCell id="AFJ6fUOBSR2v7E0Lf3oa-7" value="PrintCart" style="rounded=1;whiteSpace=wrap;html=1;fillStyle=auto;strokeColor=#000000;fontColor=#000000;fillColor=#ffffff;fontSize=13;fontStyle=1" parent="1" vertex="1">
                    <mxGeometry x="0.5" y="200" width="59.5" height="40" as="geometry"/>
                </mxCell>
                <mxCell id="AFJ6fUOBSR2v7E0Lf3oa-35" style="rounded=0;orthogonalLoop=1;jettySize=auto;html=1;exitX=0.5;exitY=1;exitDx=0;exitDy=0;entryX=0.5;entryY=0;entryDx=0;entryDy=0;fontSize=17;fontColor=#000000;startArrow=none;edgeStyle=orthogonalEdgeStyle;startFill=0;endArrow=none;endFill=0;strokeColor=#000000;" parent="1" source="AFJ6fUOBSR2v7E0Lf3oa-61" target="AFJ6fUOBSR2v7E0Lf3oa-27" edge="1">
                    <mxGeometry relative="1" as="geometry"/>
                </mxCell>
                <mxCell id="AFJ6fUOBSR2v7E0Lf3oa-8" value="&lt;span style=&quot;font-size: 12pt; font-family: &amp;quot;Times New Roman&amp;quot;, serif; font-weight: normal;&quot;&gt;printShirt()&lt;/span&gt;" style="rounded=1;whiteSpace=wrap;html=1;fillStyle=auto;strokeColor=#000000;fontColor=#000000;fillColor=#ffffff;fontSize=13;fontStyle=1" parent="1" vertex="1">
                    <mxGeometry x="237" y="200" width="80" height="40" as="geometry"/>
                </mxCell>
                <mxCell id="AFJ6fUOBSR2v7E0Lf3oa-40" style="rounded=0;orthogonalLoop=1;jettySize=auto;html=1;exitX=0.5;exitY=1;exitDx=0;exitDy=0;entryX=0.25;entryY=0;entryDx=0;entryDy=0;fontSize=17;fontColor=#000000;startArrow=none;edgeStyle=orthogonalEdgeStyle;startFill=0;endArrow=none;endFill=0;strokeColor=#000000;" parent="1" source="AFJ6fUOBSR2v7E0Lf3oa-50" target="AFJ6fUOBSR2v7E0Lf3oa-29" edge="1">
                    <mxGeometry relative="1" as="geometry"/>
                </mxCell>
                <mxCell id="AFJ6fUOBSR2v7E0Lf3oa-9" value="&lt;span style=&quot;font-size: 12pt; font-family: &amp;quot;Times New Roman&amp;quot;, serif; font-weight: normal;&quot;&gt;checkOut()&lt;/span&gt;" style="rounded=1;whiteSpace=wrap;html=1;fillStyle=auto;strokeColor=#000000;fontColor=#000000;fillColor=#ffffff;fontSize=13;fontStyle=1" parent="1" vertex="1">
                    <mxGeometry x="954" y="200" width="106" height="40" as="geometry"/>
                </mxCell>
                <mxCell id="AFJ6fUOBSR2v7E0Lf3oa-39" style="rounded=0;orthogonalLoop=1;jettySize=auto;html=1;exitX=0.75;exitY=1;exitDx=0;exitDy=0;entryX=0.5;entryY=0;entryDx=0;entryDy=0;fontSize=17;fontColor=#000000;edgeStyle=orthogonalEdgeStyle;startArrow=none;startFill=0;endArrow=none;endFill=0;strokeColor=#000000;" parent="1" source="AFJ6fUOBSR2v7E0Lf3oa-10" target="AFJ6fUOBSR2v7E0Lf3oa-30" edge="1">
                    <mxGeometry relative="1" as="geometry"/>
                </mxCell>
                <mxCell id="AFJ6fUOBSR2v7E0Lf3oa-10" value="&lt;span style=&quot;font-size: 12pt; font-family: &amp;quot;Times New Roman&amp;quot;, serif; font-weight: normal;&quot;&gt;calcTotal()&lt;/span&gt;" style="rounded=1;whiteSpace=wrap;html=1;fillStyle=auto;strokeColor=#000000;fontColor=#000000;fillColor=#ffffff;fontSize=13;fontStyle=1" parent="1" vertex="1">
                    <mxGeometry x="856" y="197" width="80" height="40" as="geometry"/>
                </mxCell>
                <mxCell id="AFJ6fUOBSR2v7E0Lf3oa-36" style="rounded=0;orthogonalLoop=1;jettySize=auto;html=1;exitX=0.5;exitY=1;exitDx=0;exitDy=0;fontSize=17;fontColor=#000000;startArrow=none;edgeStyle=orthogonalEdgeStyle;startFill=0;endArrow=none;endFill=0;strokeColor=#000000;" parent="1" source="AFJ6fUOBSR2v7E0Lf3oa-53" target="AFJ6fUOBSR2v7E0Lf3oa-28" edge="1">
                    <mxGeometry relative="1" as="geometry"/>
                </mxCell>
                <mxCell id="AFJ6fUOBSR2v7E0Lf3oa-13" value="&lt;span style=&quot;font-weight: normal;&quot;&gt;getMenuChoice()&lt;/span&gt;" style="rounded=1;whiteSpace=wrap;html=1;fillStyle=auto;strokeColor=#000000;fontColor=#000000;fillColor=#ffffff;fontSize=13;fontStyle=1" parent="1" vertex="1">
                    <mxGeometry x="335" y="200" width="110" height="40" as="geometry"/>
                </mxCell>
                <mxCell id="AFJ6fUOBSR2v7E0Lf3oa-26" value="&lt;span style=&quot;font-size:12.0pt;font-family:&amp;quot;Times New Roman&amp;quot;,serif;&lt;br/&gt;mso-fareast-font-family:&amp;quot;Times New Roman&amp;quot;;mso-ansi-language:EN-US;mso-fareast-language:&lt;br/&gt;EN-US;mso-bidi-language:AR-SA&quot;&gt;printCart()&lt;/span&gt;" style="rounded=0;whiteSpace=wrap;html=1;fillStyle=auto;strokeColor=#000000;fontSize=11;fontColor=#000000;fillColor=#ffffff;align=left;verticalAlign=top;" parent="1" vertex="1">
                    <mxGeometry x="2" y="320" width="57" height="60" as="geometry"/>
                </mxCell>
                <mxCell id="AFJ6fUOBSR2v7E0Lf3oa-27" value="void&amp;nbsp;&lt;span style=&quot;font-size:12.0pt;font-family:&amp;quot;Times New Roman&amp;quot;,serif;&lt;br/&gt;mso-fareast-font-family:&amp;quot;Times New Roman&amp;quot;;mso-ansi-language:EN-US;mso-fareast-language:&lt;br/&gt;EN-US;mso-bidi-language:AR-SA&quot;&gt;printShirt()&lt;/span&gt;" style="rounded=0;whiteSpace=wrap;html=1;fillStyle=auto;strokeColor=#000000;fontSize=11;fontColor=#000000;fillColor=#ffffff;verticalAlign=top;align=left;" parent="1" vertex="1">
                    <mxGeometry x="234.25" y="320" width="82.75" height="40" as="geometry"/>
                </mxCell>
                <mxCell id="AFJ6fUOBSR2v7E0Lf3oa-28" value="&lt;p class=&quot;MsoNormal&quot;&gt;int&amp;nbsp;&lt;span style=&quot;color:#DADADA&quot;&gt;&lt;/span&gt;&lt;/p&gt;&lt;span style=&quot;font-size:12.0pt;font-family:&amp;quot;Times New Roman&amp;quot;,serif;&lt;br/&gt;mso-fareast-font-family:&amp;quot;Times New Roman&amp;quot;;mso-ansi-language:EN-US;mso-fareast-language:&lt;br/&gt;EN-US;mso-bidi-language:AR-SA&quot;&gt;getMenuChoice();&lt;br&gt;&lt;/span&gt;" style="rounded=0;whiteSpace=wrap;html=1;fillStyle=auto;strokeColor=#000000;fontSize=11;fontColor=#000000;fillColor=#ffffff;align=left;verticalAlign=top;" parent="1" vertex="1">
                    <mxGeometry x="343" y="320" width="94" height="70" as="geometry"/>
                </mxCell>
                <mxCell id="AFJ6fUOBSR2v7E0Lf3oa-29" value="&lt;p class=&quot;MsoNormal&quot; style=&quot;font-size: 11px;&quot;&gt;float&amp;nbsp;&lt;/p&gt;&lt;span&gt;checkOut();&lt;/span&gt;" style="rounded=0;whiteSpace=wrap;html=1;fillStyle=auto;strokeColor=#000000;fontSize=11;fontColor=#000000;fillColor=#ffffff;align=left;verticalAlign=top;" parent="1" vertex="1">
                    <mxGeometry x="980" y="320" width="90" height="70" as="geometry"/>
                </mxCell>
                <mxCell id="AFJ6fUOBSR2v7E0Lf3oa-30" value="&lt;p class=&quot;MsoNormal&quot;&gt;float&amp;nbsp;&lt;span style=&quot;color:#DADADA&quot;&gt;&lt;/span&gt;&lt;/p&gt;&lt;span&gt;calcTotal()&lt;/span&gt;" style="rounded=0;whiteSpace=wrap;html=1;fillStyle=auto;strokeColor=#000000;fontSize=11;fontColor=#000000;fillColor=#ffffff;align=left;verticalAlign=top;" parent="1" vertex="1">
                    <mxGeometry x="870" y="320" width="89" height="70" as="geometry"/>
                </mxCell>
                <mxCell id="AFJ6fUOBSR2v7E0Lf3oa-42" value="" style="endArrow=oval;startArrow=classic;html=1;rounded=1;fontSize=17;fontColor=#000000;exitX=0.75;exitY=0;exitDx=0;exitDy=0;endFill=1;strokeWidth=1;startSize=6;endSize=6;strokeColor=#000000;" parent="1" source="AFJ6fUOBSR2v7E0Lf3oa-9" edge="1">
                    <mxGeometry width="50" height="50" relative="1" as="geometry">
                        <mxPoint x="1040" y="160" as="sourcePoint"/>
                        <mxPoint x="730" y="45" as="targetPoint"/>
                        <Array as="points">
                            <mxPoint x="1034" y="45"/>
                        </Array>
                    </mxGeometry>
                </mxCell>
                <mxCell id="AFJ6fUOBSR2v7E0Lf3oa-51" value="" style="rounded=0;orthogonalLoop=1;jettySize=auto;html=1;exitX=0.75;exitY=1;exitDx=0;exitDy=0;entryX=0.25;entryY=0;entryDx=0;entryDy=0;fontSize=17;fontColor=#000000;endArrow=none;edgeStyle=orthogonalEdgeStyle;startArrow=none;startFill=0;endFill=0;strokeColor=#000000;" parent="1" source="AFJ6fUOBSR2v7E0Lf3oa-9" target="AFJ6fUOBSR2v7E0Lf3oa-50" edge="1">
                    <mxGeometry relative="1" as="geometry">
                        <mxPoint x="1006.9999999999998" y="240" as="sourcePoint"/>
                        <mxPoint x="1007.5" y="320" as="targetPoint"/>
                    </mxGeometry>
                </mxCell>
                <mxCell id="AFJ6fUOBSR2v7E0Lf3oa-50" value="" style="html=1;whiteSpace=wrap;aspect=fixed;shape=isoRectangle;fillStyle=auto;strokeColor=#000000;fontSize=17;fontColor=#000000;fillColor=#ffffff;" parent="1" vertex="1">
                    <mxGeometry x="997" y="270" width="20" height="12" as="geometry"/>
                </mxCell>
                <mxCell id="AFJ6fUOBSR2v7E0Lf3oa-54" value="" style="endArrow=classic;html=1;rounded=1;strokeWidth=1;fontSize=17;fontColor=#000000;startSize=6;endSize=4;entryX=1.026;entryY=0.435;entryDx=0;entryDy=0;entryPerimeter=0;exitX=-0.109;exitY=0.496;exitDx=0;exitDy=0;exitPerimeter=0;strokeColor=#000000;" parent="1" source="AFJ6fUOBSR2v7E0Lf3oa-53" target="AFJ6fUOBSR2v7E0Lf3oa-53" edge="1">
                    <mxGeometry width="50" height="50" relative="1" as="geometry">
                        <mxPoint x="350" y="290" as="sourcePoint"/>
                        <mxPoint x="440" y="270" as="targetPoint"/>
                        <Array as="points">
                            <mxPoint x="370" y="280"/>
                            <mxPoint x="377" y="290"/>
                            <mxPoint x="400" y="290"/>
                            <mxPoint x="410" y="280"/>
                        </Array>
                    </mxGeometry>
                </mxCell>
                <mxCell id="AFJ6fUOBSR2v7E0Lf3oa-62" value="" style="endArrow=classic;html=1;rounded=1;strokeWidth=1;fontSize=17;fontColor=#000000;startSize=6;endSize=4;entryX=1.026;entryY=0.435;entryDx=0;entryDy=0;entryPerimeter=0;exitX=-0.109;exitY=0.496;exitDx=0;exitDy=0;exitPerimeter=0;strokeColor=#000000;" parent="1" source="AFJ6fUOBSR2v7E0Lf3oa-61" target="AFJ6fUOBSR2v7E0Lf3oa-61" edge="1">
                    <mxGeometry width="50" height="50" relative="1" as="geometry">
                        <mxPoint x="231.5" y="290" as="sourcePoint"/>
                        <mxPoint x="321.5" y="270" as="targetPoint"/>
                        <Array as="points">
                            <mxPoint x="251.5" y="280"/>
                            <mxPoint x="258.5" y="290"/>
                            <mxPoint x="281.5" y="290"/>
                            <mxPoint x="291.5" y="280"/>
                        </Array>
                    </mxGeometry>
                </mxCell>
                <mxCell id="AFJ6fUOBSR2v7E0Lf3oa-67" value="" style="rounded=0;orthogonalLoop=1;jettySize=auto;html=1;exitX=0.5;exitY=1;exitDx=0;exitDy=0;entryX=0.5;entryY=0;entryDx=0;entryDy=0;fontSize=17;fontColor=#000000;endArrow=none;edgeStyle=orthogonalEdgeStyle;startArrow=none;startFill=0;endFill=0;strokeColor=#000000;" parent="1" source="AFJ6fUOBSR2v7E0Lf3oa-8" target="AFJ6fUOBSR2v7E0Lf3oa-61" edge="1">
                    <mxGeometry relative="1" as="geometry">
                        <mxPoint x="322.50000000000006" y="240" as="sourcePoint"/>
                        <mxPoint x="315" y="320" as="targetPoint"/>
                    </mxGeometry>
                </mxCell>
                <mxCell id="AFJ6fUOBSR2v7E0Lf3oa-61" value="" style="html=1;whiteSpace=wrap;aspect=fixed;shape=isoRectangle;fillStyle=auto;strokeColor=#000000;fontSize=17;fontColor=#000000;fillColor=#ffffff;" parent="1" vertex="1">
                    <mxGeometry x="261.5" y="270" width="20" height="12" as="geometry"/>
                </mxCell>
                <mxCell id="AFJ6fUOBSR2v7E0Lf3oa-68" value="" style="rounded=0;orthogonalLoop=1;jettySize=auto;html=1;exitX=0.5;exitY=1;exitDx=0;exitDy=0;fontSize=17;fontColor=#000000;endArrow=none;edgeStyle=orthogonalEdgeStyle;startArrow=none;startFill=0;endFill=0;strokeColor=#000000;" parent="1" source="AFJ6fUOBSR2v7E0Lf3oa-13" target="AFJ6fUOBSR2v7E0Lf3oa-53" edge="1">
                    <mxGeometry relative="1" as="geometry">
                        <mxPoint x="442" y="240" as="sourcePoint"/>
                        <mxPoint x="451" y="320" as="targetPoint"/>
                    </mxGeometry>
                </mxCell>
                <mxCell id="AFJ6fUOBSR2v7E0Lf3oa-53" value="" style="html=1;whiteSpace=wrap;aspect=fixed;shape=isoRectangle;fillStyle=auto;strokeColor=#000000;fontSize=17;fontColor=#000000;fillColor=#ffffff;" parent="1" vertex="1">
                    <mxGeometry x="380" y="270" width="20" height="12" as="geometry"/>
                </mxCell>
                <mxCell id="AFJ6fUOBSR2v7E0Lf3oa-69" value="" style="endArrow=classic;startArrow=none;html=1;rounded=1;strokeWidth=1;fontSize=17;fontColor=#000000;startSize=6;endSize=4;exitX=0.75;exitY=0;exitDx=0;exitDy=0;entryX=0.25;entryY=0;entryDx=0;entryDy=0;endFill=1;strokeColor=#000000;startFill=0;edgeStyle=orthogonalEdgeStyle;" parent="1" source="AFJ6fUOBSR2v7E0Lf3oa-7" target="AFJ6fUOBSR2v7E0Lf3oa-8" edge="1">
                    <mxGeometry width="50" height="50" relative="1" as="geometry">
                        <mxPoint x="550" y="290" as="sourcePoint"/>
                        <mxPoint x="600" y="240" as="targetPoint"/>
                        <Array as="points">
                            <mxPoint x="45" y="140"/>
                            <mxPoint x="257" y="140"/>
                        </Array>
                    </mxGeometry>
                </mxCell>
                <mxCell id="ryHZw9no8jnoyW8bneI8-1" style="rounded=0;orthogonalLoop=1;jettySize=auto;html=1;exitX=0.5;exitY=1;exitDx=0;exitDy=0;entryX=0.5;entryY=0;entryDx=0;entryDy=0;fontSize=17;fontColor=#000000;startArrow=none;edgeStyle=orthogonalEdgeStyle;startFill=0;endArrow=none;endFill=0;strokeColor=#000000;" parent="1" source="ryHZw9no8jnoyW8bneI8-6" target="ryHZw9no8jnoyW8bneI8-3" edge="1">
                    <mxGeometry relative="1" as="geometry"/>
                </mxCell>
                <mxCell id="ryHZw9no8jnoyW8bneI8-2" value="ReadShirtFile&amp;nbsp;" style="rounded=1;whiteSpace=wrap;html=1;fillStyle=auto;strokeColor=#000000;fontColor=#000000;fillColor=#ffffff;fontSize=13;fontStyle=1" parent="1" vertex="1">
                    <mxGeometry x="67" y="200" width="90" height="40" as="geometry"/>
                </mxCell>
                <mxCell id="ryHZw9no8jnoyW8bneI8-3" value="&lt;span style=&quot;font-size:12.0pt;font-family:&amp;quot;Times New Roman&amp;quot;,serif;&lt;br/&gt;mso-fareast-font-family:&amp;quot;Times New Roman&amp;quot;;mso-ansi-language:EN-US;mso-fareast-language:&lt;br/&gt;EN-US;mso-bidi-language:AR-SA&quot;&gt;readShirtFile()&lt;/span&gt;" style="rounded=0;whiteSpace=wrap;html=1;fillStyle=auto;strokeColor=#000000;fontSize=11;fontColor=#000000;fillColor=#ffffff;verticalAlign=top;align=left;" parent="1" vertex="1">
                    <mxGeometry x="73" y="320" width="80" height="60" as="geometry"/>
                </mxCell>
                <mxCell id="ryHZw9no8jnoyW8bneI8-4" value="" style="endArrow=classic;html=1;rounded=1;strokeWidth=1;fontSize=17;fontColor=#000000;startSize=6;endSize=4;entryX=1.026;entryY=0.435;entryDx=0;entryDy=0;entryPerimeter=0;exitX=-0.109;exitY=0.496;exitDx=0;exitDy=0;exitPerimeter=0;strokeColor=#000000;" parent="1" source="ryHZw9no8jnoyW8bneI8-6" target="ryHZw9no8jnoyW8bneI8-6" edge="1">
                    <mxGeometry width="50" height="50" relative="1" as="geometry">
                        <mxPoint x="67.5" y="290" as="sourcePoint"/>
                        <mxPoint x="157.5" y="270" as="targetPoint"/>
                        <Array as="points">
                            <mxPoint x="87.5" y="280"/>
                            <mxPoint x="94.5" y="290"/>
                            <mxPoint x="117.5" y="290"/>
                            <mxPoint x="127.5" y="280"/>
                        </Array>
                    </mxGeometry>
                </mxCell>
                <mxCell id="ryHZw9no8jnoyW8bneI8-5" value="" style="rounded=0;orthogonalLoop=1;jettySize=auto;html=1;exitX=0.5;exitY=1;exitDx=0;exitDy=0;entryX=0.5;entryY=0;entryDx=0;entryDy=0;fontSize=17;fontColor=#000000;endArrow=none;edgeStyle=orthogonalEdgeStyle;startArrow=none;startFill=0;endFill=0;strokeColor=#000000;" parent="1" source="ryHZw9no8jnoyW8bneI8-2" target="ryHZw9no8jnoyW8bneI8-6" edge="1">
                    <mxGeometry relative="1" as="geometry">
                        <mxPoint x="184.50000000000006" y="240" as="sourcePoint"/>
                        <mxPoint x="177" y="320" as="targetPoint"/>
                    </mxGeometry>
                </mxCell>
                <mxCell id="ryHZw9no8jnoyW8bneI8-6" value="" style="html=1;whiteSpace=wrap;aspect=fixed;shape=isoRectangle;fillStyle=auto;strokeColor=#000000;fontSize=17;fontColor=#000000;fillColor=#ffffff;" parent="1" vertex="1">
                    <mxGeometry x="97.5" y="270" width="20" height="12" as="geometry"/>
                </mxCell>
                <mxCell id="ryHZw9no8jnoyW8bneI8-7" value="" style="endArrow=circle;startArrow=classic;html=1;rounded=1;strokeWidth=1;fontSize=17;fontColor=#000000;startSize=6;endSize=4;entryX=0.5;entryY=0;entryDx=0;entryDy=0;endFill=0;strokeColor=#000000;edgeStyle=orthogonalEdgeStyle;" parent="1" target="ryHZw9no8jnoyW8bneI8-2" edge="1">
                    <mxGeometry width="50" height="50" relative="1" as="geometry">
                        <mxPoint x="370" y="40" as="sourcePoint"/>
                        <mxPoint x="452" y="240" as="targetPoint"/>
                    </mxGeometry>
                </mxCell>
                <mxCell id="2" style="rounded=0;orthogonalLoop=1;jettySize=auto;html=1;exitX=0.5;exitY=1;exitDx=0;exitDy=0;entryX=0.5;entryY=0;entryDx=0;entryDy=0;fontSize=17;fontColor=#000000;startArrow=none;edgeStyle=orthogonalEdgeStyle;startFill=0;endArrow=none;endFill=0;strokeColor=#000000;" parent="1" source="7" target="4" edge="1">
                    <mxGeometry relative="1" as="geometry"/>
                </mxCell>
                <mxCell id="3" value="Line()" style="rounded=1;whiteSpace=wrap;html=1;fillStyle=auto;strokeColor=#000000;fontColor=#000000;fillColor=#ffffff;fontSize=13;fontStyle=1" parent="1" vertex="1">
                    <mxGeometry x="166" y="200" width="60" height="40" as="geometry"/>
                </mxCell>
                <mxCell id="4" value="&lt;span&gt;void&amp;nbsp;&lt;/span&gt;&lt;span&gt;Line&lt;br&gt;(int num);&lt;/span&gt;" style="rounded=0;whiteSpace=wrap;html=1;fillStyle=auto;strokeColor=#000000;fontSize=11;fontColor=#000000;fillColor=#ffffff;verticalAlign=top;align=left;" parent="1" vertex="1">
                    <mxGeometry x="172" y="320" width="54" height="60" as="geometry"/>
                </mxCell>
                <mxCell id="5" value="" style="endArrow=classic;html=1;rounded=1;strokeWidth=1;fontSize=17;fontColor=#000000;startSize=6;endSize=4;entryX=1.026;entryY=0.435;entryDx=0;entryDy=0;entryPerimeter=0;exitX=-0.109;exitY=0.496;exitDx=0;exitDy=0;exitPerimeter=0;strokeColor=#000000;" parent="1" source="7" target="7" edge="1">
                    <mxGeometry width="50" height="50" relative="1" as="geometry">
                        <mxPoint x="158.5" y="290" as="sourcePoint"/>
                        <mxPoint x="248.5" y="270" as="targetPoint"/>
                        <Array as="points">
                            <mxPoint x="178.5" y="280"/>
                            <mxPoint x="185.5" y="290"/>
                            <mxPoint x="208.5" y="290"/>
                            <mxPoint x="218.5" y="280"/>
                        </Array>
                    </mxGeometry>
                </mxCell>
                <mxCell id="6" value="" style="rounded=0;orthogonalLoop=1;jettySize=auto;html=1;exitX=0.5;exitY=1;exitDx=0;exitDy=0;entryX=0.5;entryY=0;entryDx=0;entryDy=0;fontSize=17;fontColor=#000000;endArrow=none;edgeStyle=orthogonalEdgeStyle;startArrow=none;startFill=0;endFill=0;strokeColor=#000000;" parent="1" source="3" target="7" edge="1">
                    <mxGeometry relative="1" as="geometry">
                        <mxPoint x="283.50000000000006" y="240" as="sourcePoint"/>
                        <mxPoint x="276" y="320" as="targetPoint"/>
                    </mxGeometry>
                </mxCell>
                <mxCell id="7" value="" style="html=1;whiteSpace=wrap;aspect=fixed;shape=isoRectangle;fillStyle=auto;strokeColor=#000000;fontSize=17;fontColor=#000000;fillColor=#ffffff;" parent="1" vertex="1">
                    <mxGeometry x="188.5" y="270" width="20" height="12" as="geometry"/>
                </mxCell>
                <mxCell id="8" value="" style="endArrow=classic;startArrow=oval;html=1;rounded=1;strokeWidth=1;fontSize=17;fontColor=#000000;startSize=6;endSize=4;entryX=0.5;entryY=0;entryDx=0;entryDy=0;endFill=1;strokeColor=#000000;startFill=1;exitX=0;exitY=0;exitDx=0;exitDy=0;edgeStyle=orthogonalEdgeStyle;" parent="1" source="AFJ6fUOBSR2v7E0Lf3oa-8" target="3" edge="1">
                    <mxGeometry width="50" height="50" relative="1" as="geometry">
                        <mxPoint x="303" y="186" as="sourcePoint"/>
                        <mxPoint x="552" y="240" as="targetPoint"/>
                        <Array as="points">
                            <mxPoint x="237" y="170"/>
                            <mxPoint x="196" y="170"/>
                        </Array>
                    </mxGeometry>
                </mxCell>
                <mxCell id="10" style="rounded=0;orthogonalLoop=1;jettySize=auto;html=1;exitX=0.5;exitY=1;exitDx=0;exitDy=0;fontSize=17;fontColor=#000000;startArrow=none;edgeStyle=orthogonalEdgeStyle;startFill=0;endArrow=none;endFill=0;strokeColor=#000000;" parent="1" source="15" target="12" edge="1">
                    <mxGeometry relative="1" as="geometry"/>
                </mxCell>
                <mxCell id="11" value="&lt;span style=&quot;font-size:12.0pt;font-family:&amp;quot;Times New Roman&amp;quot;,serif;&lt;br/&gt;mso-fareast-font-family:&amp;quot;Times New Roman&amp;quot;;mso-ansi-language:EN-US;mso-fareast-language:&lt;br/&gt;EN-US;mso-bidi-language:AR-SA&quot;&gt;getShirtSize()&lt;/span&gt;" style="rounded=1;whiteSpace=wrap;html=1;fillStyle=auto;strokeColor=#000000;fontColor=#000000;fillColor=#ffffff;fontSize=13;fontStyle=1" parent="1" vertex="1">
                    <mxGeometry x="480" y="200" width="110" height="40" as="geometry"/>
                </mxCell>
                <mxCell id="12" value="&lt;p class=&quot;MsoNormal&quot;&gt;int&amp;nbsp;&lt;span style=&quot;color:#DADADA&quot;&gt;&lt;/span&gt;&lt;/p&gt;&lt;span&gt;getShirtSize&lt;/span&gt;&lt;span&gt;()&lt;br&gt;&lt;/span&gt;" style="rounded=0;whiteSpace=wrap;html=1;fillStyle=auto;strokeColor=#000000;fontSize=11;fontColor=#000000;fillColor=#ffffff;align=left;verticalAlign=top;" parent="1" vertex="1">
                    <mxGeometry x="488" y="320" width="94" height="70" as="geometry"/>
                </mxCell>
                <mxCell id="13" value="" style="endArrow=classic;html=1;rounded=1;strokeWidth=1;fontSize=17;fontColor=#000000;startSize=6;endSize=4;entryX=1.026;entryY=0.435;entryDx=0;entryDy=0;entryPerimeter=0;exitX=-0.109;exitY=0.496;exitDx=0;exitDy=0;exitPerimeter=0;strokeColor=#000000;" parent="1" source="15" target="15" edge="1">
                    <mxGeometry width="50" height="50" relative="1" as="geometry">
                        <mxPoint x="495" y="290" as="sourcePoint"/>
                        <mxPoint x="585" y="270" as="targetPoint"/>
                        <Array as="points">
                            <mxPoint x="515" y="280"/>
                            <mxPoint x="522" y="290"/>
                            <mxPoint x="545" y="290"/>
                            <mxPoint x="555" y="280"/>
                        </Array>
                    </mxGeometry>
                </mxCell>
                <mxCell id="14" value="" style="rounded=0;orthogonalLoop=1;jettySize=auto;html=1;exitX=0.5;exitY=1;exitDx=0;exitDy=0;fontSize=17;fontColor=#000000;endArrow=none;edgeStyle=orthogonalEdgeStyle;startArrow=none;startFill=0;endFill=0;strokeColor=#000000;" parent="1" source="11" target="15" edge="1">
                    <mxGeometry relative="1" as="geometry">
                        <mxPoint x="587" y="240" as="sourcePoint"/>
                        <mxPoint x="596" y="320" as="targetPoint"/>
                    </mxGeometry>
                </mxCell>
                <mxCell id="15" value="" style="html=1;whiteSpace=wrap;aspect=fixed;shape=isoRectangle;fillStyle=auto;strokeColor=#000000;fontSize=17;fontColor=#000000;fillColor=#ffffff;" parent="1" vertex="1">
                    <mxGeometry x="525" y="270" width="20" height="12" as="geometry"/>
                </mxCell>
                <mxCell id="16" style="rounded=1;orthogonalLoop=1;jettySize=auto;html=1;fontSize=13;fontColor=#000000;startArrow=classic;startFill=1;strokeColor=#000000;endArrow=oval;endFill=1;exitX=0.25;exitY=0;exitDx=0;exitDy=0;entryX=0.75;entryY=0;entryDx=0;entryDy=0;edgeStyle=orthogonalEdgeStyle;" parent="1" source="27" edge="1" target="11">
                    <mxGeometry relative="1" as="geometry">
                        <mxPoint x="612.5" y="90" as="sourcePoint"/>
                        <mxPoint x="560" y="196" as="targetPoint"/>
                        <Array as="points">
                            <mxPoint x="628" y="167"/>
                            <mxPoint x="539" y="167"/>
                        </Array>
                    </mxGeometry>
                </mxCell>
                <mxCell id="18" style="rounded=0;orthogonalLoop=1;jettySize=auto;html=1;exitX=0.5;exitY=1;exitDx=0;exitDy=0;fontSize=17;fontColor=#000000;startArrow=none;edgeStyle=orthogonalEdgeStyle;startFill=0;endArrow=none;endFill=0;strokeColor=#000000;" parent="1" source="23" target="20" edge="1">
                    <mxGeometry relative="1" as="geometry"/>
                </mxCell>
                <mxCell id="19" value="&lt;span style=&quot;font-weight: normal;&quot;&gt;getShirtQuantity()&lt;/span&gt;" style="rounded=1;whiteSpace=wrap;html=1;fillStyle=auto;strokeColor=#000000;fontColor=#000000;fillColor=#ffffff;fontSize=13;fontStyle=1" parent="1" vertex="1">
                    <mxGeometry x="718" y="200" width="110" height="40" as="geometry"/>
                </mxCell>
                <mxCell id="20" value="&lt;p class=&quot;MsoNormal&quot;&gt;int&amp;nbsp;&lt;span style=&quot;color:#DADADA&quot;&gt;&lt;/span&gt;&lt;/p&gt;&lt;span style=&quot;font-size: 13px; text-align: center;&quot;&gt;getShirtQuantity()&lt;/span&gt;&lt;span&gt;&lt;br&gt;&lt;/span&gt;" style="rounded=0;whiteSpace=wrap;html=1;fillStyle=auto;strokeColor=#000000;fontSize=11;fontColor=#000000;fillColor=#ffffff;align=left;verticalAlign=top;" parent="1" vertex="1">
                    <mxGeometry x="726" y="320" width="112" height="70" as="geometry"/>
                </mxCell>
                <mxCell id="21" value="" style="endArrow=classic;html=1;rounded=1;strokeWidth=1;fontSize=17;fontColor=#000000;startSize=6;endSize=4;entryX=1.026;entryY=0.435;entryDx=0;entryDy=0;entryPerimeter=0;exitX=-0.109;exitY=0.496;exitDx=0;exitDy=0;exitPerimeter=0;strokeColor=#000000;" parent="1" source="23" target="23" edge="1">
                    <mxGeometry width="50" height="50" relative="1" as="geometry">
                        <mxPoint x="733" y="290" as="sourcePoint"/>
                        <mxPoint x="823" y="270" as="targetPoint"/>
                        <Array as="points">
                            <mxPoint x="753" y="280"/>
                            <mxPoint x="760" y="290"/>
                            <mxPoint x="783" y="290"/>
                            <mxPoint x="793" y="280"/>
                        </Array>
                    </mxGeometry>
                </mxCell>
                <mxCell id="22" value="" style="rounded=0;orthogonalLoop=1;jettySize=auto;html=1;exitX=0.5;exitY=1;exitDx=0;exitDy=0;fontSize=17;fontColor=#000000;endArrow=none;edgeStyle=orthogonalEdgeStyle;startArrow=none;startFill=0;endFill=0;strokeColor=#000000;" parent="1" source="19" target="23" edge="1">
                    <mxGeometry relative="1" as="geometry">
                        <mxPoint x="825" y="240" as="sourcePoint"/>
                        <mxPoint x="834" y="320" as="targetPoint"/>
                    </mxGeometry>
                </mxCell>
                <mxCell id="23" value="" style="html=1;whiteSpace=wrap;aspect=fixed;shape=isoRectangle;fillStyle=auto;strokeColor=#000000;fontSize=17;fontColor=#000000;fillColor=#ffffff;" parent="1" vertex="1">
                    <mxGeometry x="763" y="270" width="20" height="12" as="geometry"/>
                </mxCell>
                <mxCell id="24" style="edgeStyle=orthogonalEdgeStyle;rounded=1;orthogonalLoop=1;jettySize=auto;html=1;fontSize=13;fontColor=#000000;startArrow=classic;startFill=1;strokeColor=#000000;endArrow=oval;endFill=1;entryX=0.5;entryY=0;entryDx=0;entryDy=0;exitX=0.786;exitY=1;exitDx=0;exitDy=0;exitPerimeter=0;" parent="1" edge="1" target="27" source="AFJ6fUOBSR2v7E0Lf3oa-3">
                    <mxGeometry relative="1" as="geometry">
                        <mxPoint x="680" y="90" as="sourcePoint"/>
                        <mxPoint x="690" y="196" as="targetPoint"/>
                    </mxGeometry>
                </mxCell>
                <mxCell id="26" style="rounded=0;orthogonalLoop=1;jettySize=auto;html=1;exitX=0.5;exitY=1;exitDx=0;exitDy=0;fontSize=17;fontColor=#000000;startArrow=none;edgeStyle=orthogonalEdgeStyle;startFill=0;endArrow=none;endFill=0;strokeColor=#000000;" edge="1" source="31" target="28" parent="1">
                    <mxGeometry relative="1" as="geometry"/>
                </mxCell>
                <mxCell id="27" value="&lt;span&gt;orderShirt()&lt;/span&gt;" style="rounded=1;whiteSpace=wrap;html=1;fillStyle=auto;strokeColor=#000000;fontColor=#000000;fillColor=#ffffff;fontSize=13;fontStyle=1" vertex="1" parent="1">
                    <mxGeometry x="600" y="200" width="110" height="40" as="geometry"/>
                </mxCell>
                <mxCell id="28" value="&lt;p class=&quot;MsoNormal&quot;&gt;void&amp;nbsp;&lt;span style=&quot;color:#DADADA&quot;&gt;&lt;/span&gt;&lt;/p&gt;&lt;span&gt;orderShirt&lt;/span&gt;&lt;span&gt;(int ID)&lt;br&gt;&lt;/span&gt;" style="rounded=0;whiteSpace=wrap;html=1;fillStyle=auto;strokeColor=#000000;fontSize=11;fontColor=#000000;fillColor=#ffffff;align=left;verticalAlign=top;" vertex="1" parent="1">
                    <mxGeometry x="608" y="320" width="94" height="70" as="geometry"/>
                </mxCell>
                <mxCell id="29" value="" style="endArrow=classic;html=1;rounded=1;strokeWidth=1;fontSize=17;fontColor=#000000;startSize=6;endSize=4;entryX=1.026;entryY=0.435;entryDx=0;entryDy=0;entryPerimeter=0;exitX=-0.109;exitY=0.496;exitDx=0;exitDy=0;exitPerimeter=0;strokeColor=#000000;" edge="1" source="31" target="31" parent="1">
                    <mxGeometry width="50" height="50" relative="1" as="geometry">
                        <mxPoint x="615" y="290" as="sourcePoint"/>
                        <mxPoint x="705" y="270" as="targetPoint"/>
                        <Array as="points">
                            <mxPoint x="635" y="280"/>
                            <mxPoint x="642" y="290"/>
                            <mxPoint x="665" y="290"/>
                            <mxPoint x="675" y="280"/>
                        </Array>
                    </mxGeometry>
                </mxCell>
                <mxCell id="30" value="" style="rounded=0;orthogonalLoop=1;jettySize=auto;html=1;exitX=0.5;exitY=1;exitDx=0;exitDy=0;fontSize=17;fontColor=#000000;endArrow=none;edgeStyle=orthogonalEdgeStyle;startArrow=none;startFill=0;endFill=0;strokeColor=#000000;" edge="1" source="27" target="31" parent="1">
                    <mxGeometry relative="1" as="geometry">
                        <mxPoint x="707" y="240" as="sourcePoint"/>
                        <mxPoint x="716" y="320" as="targetPoint"/>
                    </mxGeometry>
                </mxCell>
                <mxCell id="31" value="" style="html=1;whiteSpace=wrap;aspect=fixed;shape=isoRectangle;fillStyle=auto;strokeColor=#000000;fontSize=17;fontColor=#000000;fillColor=#ffffff;" vertex="1" parent="1">
                    <mxGeometry x="645" y="270" width="20" height="12" as="geometry"/>
                </mxCell>
                <mxCell id="33" style="rounded=1;orthogonalLoop=1;jettySize=auto;html=1;fontSize=13;fontColor=#000000;startArrow=classic;startFill=1;strokeColor=#000000;endArrow=oval;endFill=1;exitX=0.25;exitY=0;exitDx=0;exitDy=0;entryX=0.75;entryY=0;entryDx=0;entryDy=0;edgeStyle=orthogonalEdgeStyle;" edge="1" parent="1" source="27" target="11">
                    <mxGeometry relative="1" as="geometry">
                        <mxPoint x="627.5" y="200" as="sourcePoint"/>
                        <mxPoint x="538.5" y="200" as="targetPoint"/>
                        <Array as="points">
                            <mxPoint x="628" y="167"/>
                            <mxPoint x="539" y="167"/>
                        </Array>
                    </mxGeometry>
                </mxCell>
                <mxCell id="34" style="rounded=1;orthogonalLoop=1;jettySize=auto;html=1;fontSize=13;fontColor=#000000;startArrow=classic;startFill=1;strokeColor=#000000;endArrow=oval;endFill=1;edgeStyle=orthogonalEdgeStyle;entryX=0.5;entryY=0;entryDx=0;entryDy=0;" edge="1" parent="1" source="27" target="19">
                    <mxGeometry relative="1" as="geometry">
                        <mxPoint x="685" y="177" as="sourcePoint"/>
                        <mxPoint x="660" y="122" as="targetPoint"/>
                        <Array as="points">
                            <mxPoint x="678" y="158"/>
                            <mxPoint x="784" y="158"/>
                        </Array>
                    </mxGeometry>
                </mxCell>
            </root>
        </mxGraphModel>
    </diagram>
</mxfile>